<?xml version="1.0" encoding="UTF-8" standalone="no"?>
<!DOCTYPE svg PUBLIC "-//W3C//DTD SVG 1.1//EN"
 "http://www.w3.org/Graphics/SVG/1.1/DTD/svg11.dtd">
<!-- Generated by graphviz version 2.50.0 (0)
 -->
<!-- Title: G Pages: 1 -->
<svg width="783pt" height="730pt"
 viewBox="0.00 0.00 782.74 730.45" xmlns="http://www.w3.org/2000/svg" xmlns:xlink="http://www.w3.org/1999/xlink">
<g id="graph0" class="graph" transform="scale(1 1) rotate(0) translate(4 726.45)">
<title>G</title>
<polygon fill="white" stroke="transparent" points="-4,4 -4,-726.45 778.74,-726.45 778.74,4 -4,4"/>
<!-- 11 -->
<g id="node1" class="node">
<title>11</title>
<ellipse fill="none" stroke="black" cx="48.75" cy="-182.24" rx="48.99" ry="48.99"/>
<text text-anchor="middle" x="48.75" y="-178.54" font-family="Times,serif" font-size="14.00">b301&#45;02</text>
</g>
<!-- 9 -->
<g id="node2" class="node">
<title>9</title>
<ellipse fill="none" stroke="black" cx="163.75" cy="-182.24" rx="48.99" ry="48.99"/>
<text text-anchor="middle" x="163.75" y="-178.54" font-family="Times,serif" font-size="14.00">b301&#45;03</text>
</g>
<!-- 10 -->
<g id="node3" class="node">
<title>10</title>
<ellipse fill="none" stroke="black" cx="320.75" cy="-48.75" rx="48.99" ry="48.99"/>
<text text-anchor="middle" x="320.75" y="-45.05" font-family="Times,serif" font-size="14.00">b301&#45;04</text>
</g>
<!-- 8 -->
<g id="node4" class="node">
<title>8</title>
<ellipse fill="none" stroke="black" cx="435.75" cy="-48.75" rx="48.99" ry="48.99"/>
<text text-anchor="middle" x="435.75" y="-45.05" font-family="Times,serif" font-size="14.00">b301&#45;05</text>
</g>
<!-- 12 -->
<g id="node5" class="node">
<title>12</title>
<ellipse fill="none" stroke="black" cx="450.75" cy="-641.21" rx="48.99" ry="48.99"/>
<text text-anchor="middle" x="450.75" y="-637.51" font-family="Times,serif" font-size="14.00">b301&#45;06</text>
</g>
<!-- 2 -->
<g id="node6" class="node">
<title>2</title>
<ellipse fill="none" stroke="black" cx="584.75" cy="-641.21" rx="67.69" ry="67.69"/>
<text text-anchor="middle" x="584.75" y="-637.51" font-family="Times,serif" font-size="14.00">fortigate&#45;isp</text>
</g>
<!-- 3 -->
<g id="node7" class="node">
<title>3</title>
<ellipse fill="none" stroke="black" cx="302.75" cy="-641.21" rx="81.49" ry="81.49"/>
<text text-anchor="middle" x="302.75" y="-637.51" font-family="Times,serif" font-size="14.00">l3sw1.l3sw1.sk</text>
</g>
<!-- 5 -->
<g id="node10" class="node">
<title>5</title>
<ellipse fill="none" stroke="black" cx="302.75" cy="-488.87" rx="35.19" ry="35.19"/>
<text text-anchor="middle" x="302.75" y="-485.17" font-family="Times,serif" font-size="14.00">sw11</text>
</g>
<!-- 3&#45;&#45;5 -->
<g id="edge3" class="edge">
<title>3&#45;&#45;5</title>
<path fill="none" stroke="black" d="M302.75,-559.75C302.75,-547.19 302.75,-534.82 302.75,-524.06"/>
</g>
<!-- 7 -->
<g id="node11" class="node">
<title>7</title>
<ellipse fill="none" stroke="black" cx="378.75" cy="-182.24" rx="35.19" ry="35.19"/>
<text text-anchor="middle" x="378.75" y="-178.54" font-family="Times,serif" font-size="14.00">sw12</text>
</g>
<!-- 3&#45;&#45;7 -->
<g id="edge2" class="edge">
<title>3&#45;&#45;7</title>
<path fill="none" stroke="black" d="M334.17,-566.09C339.05,-552.28 343.53,-537.84 346.75,-523.96 372.23,-413.99 377.51,-279.57 378.54,-217.57"/>
</g>
<!-- 6 -->
<g id="node12" class="node">
<title>6</title>
<ellipse fill="none" stroke="black" cx="199.75" cy="-342.38" rx="75.29" ry="75.29"/>
<text text-anchor="middle" x="199.75" y="-338.68" font-family="Times,serif" font-size="14.00">sw21.sw21.sk</text>
</g>
<!-- 3&#45;&#45;6 -->
<g id="edge1" class="edge">
<title>3&#45;&#45;6</title>
<path fill="none" stroke="black" d="M273.72,-565.04C268.62,-551.41 263.44,-537.29 258.75,-523.96 246.08,-488.03 232.84,-447.77 222.11,-414.39"/>
</g>
<!-- 1 -->
<g id="node8" class="node">
<title>1</title>
<ellipse fill="none" stroke="black" cx="722.75" cy="-641.21" rx="51.99" ry="51.99"/>
<text text-anchor="middle" x="722.75" y="-637.51" font-family="Times,serif" font-size="14.00">librenms</text>
</g>
<!-- 4 -->
<g id="node9" class="node">
<title>4</title>
<ellipse fill="none" stroke="black" cx="277.75" cy="-182.24" rx="47.39" ry="47.39"/>
<text text-anchor="middle" x="277.75" y="-178.54" font-family="Times,serif" font-size="14.00">r2.r2.sk</text>
</g>
<!-- 5&#45;&#45;4 -->
<g id="edge5" class="edge">
<title>5&#45;&#45;4</title>
<path fill="none" stroke="black" d="M299.95,-453.81C295.46,-399.08 286.63,-291.46 281.56,-229.72"/>
</g>
<!-- 5&#45;&#45;7 -->
<g id="edge4" class="edge">
<title>5&#45;&#45;7</title>
<path fill="none" stroke="black" d="M311.02,-454.69C325.64,-396.09 355.87,-274.95 370.48,-216.38"/>
</g>
<!-- 5&#45;&#45;6 -->
<g id="edge6" class="edge">
<title>5&#45;&#45;6</title>
<path fill="none" stroke="black" d="M282.64,-459.66C271.4,-443.9 256.93,-423.6 243.24,-404.39"/>
</g>
<!-- 7&#45;&#45;10 -->
<g id="edge11" class="edge">
<title>7&#45;&#45;10</title>
<path fill="none" stroke="black" d="M364.85,-149.74C357.48,-133.03 348.3,-112.21 340.23,-93.91"/>
</g>
<!-- 7&#45;&#45;8 -->
<g id="edge12" class="edge">
<title>7&#45;&#45;8</title>
<path fill="none" stroke="black" d="M392.4,-149.74C399.64,-133.03 408.67,-112.21 416.6,-93.91"/>
</g>
<!-- 6&#45;&#45;11 -->
<g id="edge8" class="edge">
<title>6&#45;&#45;11</title>
<path fill="none" stroke="black" d="M147.78,-286.95C126.11,-264.26 101.57,-238.56 82.34,-218.42"/>
</g>
<!-- 6&#45;&#45;9 -->
<g id="edge10" class="edge">
<title>6&#45;&#45;9</title>
<path fill="none" stroke="black" d="M183.22,-268.79C180.23,-255.63 177.18,-242.24 174.41,-230.07"/>
</g>
<!-- 6&#45;&#45;4 -->
<g id="edge7" class="edge">
<title>6&#45;&#45;4</title>
<path fill="none" stroke="black" d="M232.82,-274.31C241.05,-257.64 249.63,-240.25 257.06,-225.18"/>
</g>
<!-- 6&#45;&#45;7 -->
<g id="edge9" class="edge">
<title>6&#45;&#45;7</title>
<path fill="none" stroke="black" d="M258.82,-295.38C282.66,-276.13 310.08,-253.12 333.75,-230.98 341.07,-224.14 348.67,-216.35 355.5,-209.09"/>
</g>
</g>
</svg>
